<svg xmlns="http://www.w3.org/2000/svg" viewBox="0 0 1440 810" role="img" aria-label="Pulse AI Infrastructure"><rect width="1440" height="810" fill="#EBE9DE"/><defs><pattern id="ST" width="30" height="30" patternUnits="userSpaceOnUse" patternTransform="rotate(45)"><rect width="30" height="30" fill="#0A66C2"/><rect y="15" width="30" height="15" fill="#0A0A0A"/></pattern></defs><g transform="translate(0 6)"><rect x="430" y="392" width="232" height="200" rx="26" fill="url(#ST)"/><rect x="430" y="392" width="232" height="200" rx="26" fill="none" stroke="#0A66C2" stroke-width="9"/><rect x="470" y="430" width="152" height="124" rx="16" fill="#EBE9DE" stroke="#0A66C2" stroke-width="9"/><circle cx="512" cy="492" r="17" fill="#0A66C2"/><circle cx="580" cy="492" r="17" fill="#0A66C2"/><line x1="546" y1="392" x2="546" y2="356" stroke="#0A66C2" stroke-width="9" stroke-linecap="round"/><circle cx="546" cy="348" r="13" fill="#0A66C2"/><line x1="430" y1="470" x2="404" y2="470" stroke="#0A66C2" stroke-width="9" stroke-linecap="round"/><line x1="430" y1="514" x2="404" y2="514" stroke="#0A66C2" stroke-width="9" stroke-linecap="round"/><line x1="662" y1="470" x2="688" y2="470" stroke="#0A66C2" stroke-width="9" stroke-linecap="round"/><line x1="662" y1="514" x2="688" y2="514" stroke="#0A66C2" stroke-width="9" stroke-linecap="round"/></g><g font-family="'Plus Jakarta Sans','Trebuchet MS',Verdana,sans-serif" font-weight="800" letter-spacing="-2"><text x="806" y="452" font-size="150" fill="#E3C9B8">Pulse</text><text x="800" y="446" font-size="150" fill="#0A66C2">Pulse</text><text x="806" y="628" font-size="104" fill="#E3C9B8">AI Infra</text><text x="800" y="622" font-size="104" fill="#0A66C2">AI Infra</text></g></svg>
